<svg width="48" height="48" viewBox="0 0 800 800" fill="none" xmlns="http://www.w3.org/2000/svg"
    xmlns:xlink="http://www.w3.org/1999/xlink" version="1.1">
    <g transform="translate(0, 0)">
        <svg xmlns="http://www.w3.org/2000/svg" version="1.1" width="801px" height="800px"
            style="shape-rendering:geometricPrecision; text-rendering:geometricPrecision; image-rendering:optimizeQuality; fill-rule:evenodd; clip-rule:evenodd"
            xmlns:xlink="http://www.w3.org/1999/xlink">
            <rect width="800" height="800" fill="none" rx="60" ry="60"/>
            <g>
                <path style="opacity:1" fill="#ab103e"
                    d="M -0.5,-0.5 C 266.5,-0.5 533.5,-0.5 800.5,-0.5C 800.5,266.167 800.5,532.833 800.5,799.5C 533.5,799.5 266.5,799.5 -0.5,799.5C -0.5,532.833 -0.5,266.167 -0.5,-0.5 Z" />
            </g>
            <g>
                <path style="opacity:1" fill="#9c1a40"
                    d="M 367.5,247.5 C 335.329,247.168 303.329,247.502 271.5,248.5C 264.46,248.413 257.46,248.913 250.5,250C 245.813,250.362 241.48,251.529 237.5,253.5C 234.794,253.575 232.127,253.908 229.5,254.5C 228.761,254.631 228.094,254.464 227.5,254C 228.357,253.311 229.023,252.478 229.5,251.5C 233.796,250.672 238.129,250.172 242.5,250C 243.672,249.581 244.672,248.915 245.5,248C 252.579,247.886 259.579,247.219 266.5,246C 262.914,244.892 259.247,244.392 255.5,244.5C 255.5,243.5 255.5,242.5 255.5,241.5C 260.833,241.5 266.167,241.5 271.5,241.5C 271.5,242.833 271.5,244.167 271.5,245.5C 302.835,245.333 334.168,245.5 365.5,246C 366.416,246.278 367.082,246.778 367.5,247.5 Z" />
            </g>
            <g>
                <path style="opacity:1" fill="#8e2443"
                    d="M 271.5,248.5 C 303.329,247.502 335.329,247.168 367.5,247.5C 395.502,247.333 423.502,247.5 451.5,248C 453.345,249.128 455.345,249.628 457.5,249.5C 459.397,254.352 461.397,259.186 463.5,264C 466.715,266.61 468.215,270.11 468,274.5C 470.781,282.353 474.448,289.687 479,296.5C 479.494,298.134 479.66,299.801 479.5,301.5C 477.748,298.328 475.748,295.328 473.5,292.5C 472.127,286.365 469.793,280.699 466.5,275.5C 466.008,273.181 465.008,271.181 463.5,269.5C 461.684,264.709 459.684,260.042 457.5,255.5C 457.167,255.5 456.833,255.5 456.5,255.5C 455.537,252.537 453.537,250.537 450.5,249.5C 422.841,248.5 395.175,248.167 367.5,248.5C 335.5,248.5 303.5,248.5 271.5,248.5 Z" />
            </g>
            <g>
                <path style="opacity:1" fill="#fcb0c8"
                    d="M 367.5,248.5 C 395.175,248.167 422.841,248.5 450.5,249.5C 453.537,250.537 455.537,252.537 456.5,255.5C 454.866,254.793 453.532,253.627 452.5,252C 450.846,251.392 449.179,250.892 447.5,250.5C 420.833,249.833 394.167,249.167 367.5,248.5 Z" />
            </g>
            <g>
                <path style="opacity:1" fill="#e7a7b7"
                    d="M 655.5,248.5 C 655.5,248.833 655.5,249.167 655.5,249.5C 651.154,249.334 646.821,249.501 642.5,250C 644.382,250.198 646.048,250.698 647.5,251.5C 645.5,251.5 643.5,251.5 641.5,251.5C 641.5,250.5 641.5,249.5 641.5,248.5C 646.167,248.5 650.833,248.5 655.5,248.5 Z" />
            </g>
            <g>
                <path style="opacity:1" fill="#fde5ed"
                    d="M 271.5,248.5 C 303.5,248.5 335.5,248.5 367.5,248.5C 394.167,249.167 420.833,249.833 447.5,250.5C 383.521,250.898 319.521,251.065 255.5,251C 249.659,252.951 243.659,253.784 237.5,253.5C 241.48,251.529 245.813,250.362 250.5,250C 257.46,248.913 264.46,248.413 271.5,248.5 Z" />
            </g>
            <g>
                <path style="opacity:1" fill="#fdfdfd"
                    d="M 447.5,250.5 C 449.179,250.892 450.846,251.392 452.5,252C 453.532,253.627 454.866,254.793 456.5,255.5C 456.833,255.5 457.167,255.5 457.5,255.5C 457.336,258.187 457.503,260.854 458,263.5C 459.368,266.186 460.701,268.853 462,271.5C 462.278,270.584 462.778,269.918 463.5,269.5C 465.008,271.181 466.008,273.181 466.5,275.5C 467.94,280.417 469.44,285.417 471,290.5C 471.417,291.756 472.25,292.423 473.5,292.5C 475.748,295.328 477.748,298.328 479.5,301.5C 480.655,304.457 481.655,307.457 482.5,310.5C 483.86,316.446 486.027,322.113 489,327.5C 490.616,331.051 490.449,334.384 488.5,337.5C 489.814,338.986 490.814,340.653 491.5,342.5C 491.417,351.415 488.751,359.415 483.5,366.5C 484.59,367.609 484.59,368.609 483.5,369.5C 482.5,368.833 481.5,368.167 480.5,367.5C 480.167,368.167 479.833,368.833 479.5,369.5C 481.235,372.315 481.735,375.315 481,378.5C 479.267,382.02 477.267,385.353 475,388.5C 472.006,389.89 470.006,388.89 469,385.5C 468.627,383.302 468.127,381.135 467.5,379C 462.812,372.306 458.978,365.139 456,357.5C 454.369,353.312 453.536,348.979 453.5,344.5C 451.5,344.167 449.5,343.833 447.5,343.5C 445.509,337.511 442.509,332.177 438.5,327.5C 438.657,326.127 438.49,324.793 438,323.5C 435.812,320.433 433.645,317.433 431.5,314.5C 425.674,304.334 418.341,295.334 409.5,287.5C 408.309,282.229 404.976,279.896 399.5,280.5C 394.366,277.348 389.032,274.682 383.5,272.5C 382.432,271.566 381.099,271.232 379.5,271.5C 374.876,269.836 370.209,268.169 365.5,266.5C 365.109,270.073 364.109,273.407 362.5,276.5C 359.209,281.127 355.542,285.46 351.5,289.5C 347.855,290.987 344.188,292.487 340.5,294C 338.866,294.494 337.199,294.66 335.5,294.5C 311.5,293.357 287.5,293.357 263.5,294.5C 255.823,295.935 248.156,297.435 240.5,299C 239.252,300.4 238.252,301.9 237.5,303.5C 234.008,304.41 231.008,306.076 228.5,308.5C 219.299,313.903 211.133,320.569 204,328.5C 199.871,335.761 196.038,343.094 192.5,350.5C 192.5,351.167 192.167,351.5 191.5,351.5C 190.624,351.369 189.957,351.702 189.5,352.5C 182.828,372.879 178.828,393.879 177.5,415.5C 175.668,431.451 175.168,447.451 176,463.5C 176.88,469.562 179.047,474.895 182.5,479.5C 184.304,484.642 187.304,488.975 191.5,492.5C 192.598,493.397 192.598,494.23 191.5,495C 192.931,495.465 194.097,496.299 195,497.5C 195.333,497.167 195.667,496.833 196,496.5C 199.07,499.734 202.904,501.067 207.5,500.5C 209.732,502.195 212.399,503.362 215.5,504C 239.875,504.703 264.042,505.87 288,507.5C 289.602,505.693 290.936,503.693 292,501.5C 293,490.173 293.833,478.839 294.5,467.5C 295.162,463.534 295.495,459.534 295.5,455.5C 297.341,450.424 297.841,445.091 297,439.5C 295.047,435.599 291.88,433.265 287.5,432.5C 285.052,431.527 282.385,431.194 279.5,431.5C 267.865,427.199 259.865,419.199 255.5,407.5C 255.5,402.5 255.5,397.5 255.5,392.5C 255.5,392.167 255.5,391.833 255.5,391.5C 286.838,390.183 318.171,390.183 349.5,391.5C 349.426,393.411 348.426,394.578 346.5,395C 348.025,396.009 349.692,396.509 351.5,396.5C 352.509,399.541 353.176,402.708 353.5,406C 352.796,413.503 352.129,421.003 351.5,428.5C 351.5,429.5 351.5,430.5 351.5,431.5C 350.351,431.791 349.684,432.624 349.5,434C 347.004,446.472 345.004,458.972 343.5,471.5C 342.414,471.62 341.747,472.287 341.5,473.5C 340.845,477.682 339.512,481.516 337.5,485C 337.971,491.077 337.971,497.244 337.5,503.5C 337.5,503.833 337.5,504.167 337.5,504.5C 336.167,507.167 334.833,509.833 333.5,512.5C 331.735,511.539 329.735,511.205 327.5,511.5C 327.166,518.507 326.666,525.507 326,532.5C 325.411,534.863 323.911,535.863 321.5,535.5C 321.322,532.784 320.822,530.117 320,527.5C 319.833,529 319.667,530.5 319.5,532C 321.217,535.615 322.217,539.448 322.5,543.5C 281.444,545.134 240.444,546.134 199.5,546.5C 195.202,545.8 190.869,545.467 186.5,545.5C 183.5,544.833 180.5,544.167 177.5,543.5C 170.956,540.284 164.956,536.284 159.5,531.5C 159.67,530.178 159.337,529.011 158.5,528C 156.146,527.153 153.812,526.32 151.5,525.5C 143.576,517.243 137.243,507.91 132.5,497.5C 133.264,494.259 132.43,491.259 130,488.5C 129.502,485.518 129.335,482.518 129.5,479.5C 128.5,479.5 127.5,479.5 126.5,479.5C 126.443,477.116 126.777,474.782 127.5,472.5C 126.272,466.902 125.605,461.235 125.5,455.5C 127.013,442.88 127.68,430.213 127.5,417.5C 127.5,416.833 127.5,416.167 127.5,415.5C 128.5,415.5 129.5,415.5 130.5,415.5C 130.935,404.73 131.935,394.063 133.5,383.5C 134.5,383.5 135.5,383.5 136.5,383.5C 136.954,376.841 137.287,370.174 137.5,363.5C 138.222,363.082 138.722,362.416 139,361.5C 139.333,361.833 139.667,362.167 140,362.5C 141.617,356.246 142.784,349.913 143.5,343.5C 143.5,342.167 143.5,340.833 143.5,339.5C 145.551,336.342 147.217,333.008 148.5,329.5C 150.032,328.323 151.532,326.989 153,325.5C 154.762,321.638 156.762,317.972 159,314.5C 159.49,313.207 159.657,311.873 159.5,310.5C 160.758,308.313 161.758,305.98 162.5,303.5C 164.027,303.573 165.027,302.906 165.5,301.5C 166.708,300.766 168.041,300.433 169.5,300.5C 170.664,297.813 172.497,295.48 175,293.5C 175.49,292.207 175.657,290.873 175.5,289.5C 175.5,288.833 175.5,288.167 175.5,287.5C 176.167,287.5 176.833,287.5 177.5,287.5C 183.07,285.96 187.237,282.626 190,277.5C 190.333,277.833 190.667,278.167 191,278.5C 192.753,277.373 194.587,276.373 196.5,275.5C 197.711,274.726 197.711,273.893 196.5,273C 197.71,271.961 198.71,270.794 199.5,269.5C 201.822,267.336 204.489,265.669 207.5,264.5C 212.017,264.048 216.683,262.881 221.5,261C 223.941,258.763 226.607,256.929 229.5,255.5C 229.5,255.167 229.5,254.833 229.5,254.5C 232.127,253.908 234.794,253.575 237.5,253.5C 243.659,253.784 249.659,252.951 255.5,251C 319.521,251.065 383.521,250.898 447.5,250.5 Z" />
            </g>
            <g>
                <path style="opacity:1" fill="#952946"
                    d="M 655.5,248.5 C 650.833,248.5 646.167,248.5 641.5,248.5C 641.5,249.5 641.5,250.5 641.5,251.5C 643.5,251.5 645.5,251.5 647.5,251.5C 647.5,256.833 647.5,262.167 647.5,267.5C 646.517,263.702 646.183,259.702 646.5,255.5C 641.403,254.757 639.07,251.757 639.5,246.5C 644.805,245.806 650.138,245.472 655.5,245.5C 655.5,246.5 655.5,247.5 655.5,248.5 Z" />
            </g>
            <g>
                <path style="opacity:1" fill="#9a1e42"
                    d="M 673.5,267.5 C 674.5,267.5 675.5,267.5 676.5,267.5C 676.443,261.149 676.11,254.815 675.5,248.5C 674.167,248.5 672.833,248.5 671.5,248.5C 671.302,252.092 670.302,255.426 668.5,258.5C 667.5,258.5 666.5,258.5 665.5,258.5C 663.885,255.377 662.885,252.044 662.5,248.5C 661.167,248.5 659.833,248.5 658.5,248.5C 657.628,254.789 657.295,261.122 657.5,267.5C 656.676,263.688 656.176,259.688 656,255.5C 654.613,260.829 654.113,266.162 654.5,271.5C 653.673,267.541 653.173,263.541 653,259.5C 652.878,257.563 652.045,256.23 650.5,255.5C 650.5,254.167 650.5,252.833 650.5,251.5C 652.415,251.784 654.081,251.451 655.5,250.5C 655.5,250.167 655.5,249.833 655.5,249.5C 655.5,249.167 655.5,248.833 655.5,248.5C 657,246.768 658.667,245.101 660.5,243.5C 662.029,243.529 663.196,244.196 664,245.5C 664.833,247.5 665.667,249.5 666.5,251.5C 669.196,244.896 673.196,243.896 678.5,248.5C 679.046,249.772 679.379,251.106 679.5,252.5C 678.778,258.836 678.111,265.169 677.5,271.5C 676.167,271.5 674.833,271.5 673.5,271.5C 673.5,270.167 673.5,268.833 673.5,267.5 Z" />
            </g>
            <g>
                <path style="opacity:1" fill="#fcfcfd"
                    d="M 593.5,250.5 C 603.5,250.5 613.5,250.5 623.5,250.5C 623.561,252.592 624.561,254.092 626.5,255C 625.692,255.308 625.025,255.808 624.5,256.5C 626.596,257.592 627.929,259.259 628.5,261.5C 627.702,264.519 627.036,267.852 626.5,271.5C 622.115,276.55 618.115,281.884 614.5,287.5C 612.196,290.141 609.862,292.808 607.5,295.5C 606.127,295.343 604.793,295.51 603.5,296C 600.335,301.239 596.669,306.073 592.5,310.5C 590.802,312.532 588.802,314.198 586.5,315.5C 584.771,317.851 584.104,320.518 584.5,323.5C 581.5,327.5 578.5,331.5 575.5,335.5C 564.762,349.271 553.762,362.938 542.5,376.5C 540.194,375.215 538.361,375.882 537,378.5C 535.711,381.168 534.544,383.835 533.5,386.5C 532.448,386.351 531.448,386.517 530.5,387C 531.252,387.671 531.586,388.504 531.5,389.5C 530.167,389.5 528.833,389.5 527.5,389.5C 527.649,390.552 527.483,391.552 527,392.5C 525.836,392.835 524.503,392.835 523,392.5C 521.234,394.881 520.068,397.548 519.5,400.5C 522.55,404.997 525.717,408.663 529,411.5C 529.413,414.232 530.08,416.899 531,419.5C 531.333,418.833 531.667,418.167 532,417.5C 532.36,419.608 533.027,421.608 534,423.5C 534.383,422.944 534.883,422.611 535.5,422.5C 538.458,428.08 541.124,433.746 543.5,439.5C 548.6,450.697 553.933,461.697 559.5,472.5C 559.328,473.492 559.662,474.158 560.5,474.5C 561.038,476.117 561.371,477.784 561.5,479.5C 561.338,481.527 561.505,483.527 562,485.5C 563.986,488.313 565.652,491.313 567,494.5C 567.671,495.252 568.504,495.586 569.5,495.5C 575.624,507.624 581.291,519.957 586.5,532.5C 587.315,538.872 584.981,543.538 579.5,546.5C 569.527,547.563 559.527,547.729 549.5,547C 547.691,544.762 545.358,543.595 542.5,543.5C 542.167,543.5 541.833,543.5 541.5,543.5C 542.428,539.517 541.095,536.85 537.5,535.5C 536.263,534.035 535.263,532.368 534.5,530.5C 534.443,529.391 534.11,528.391 533.5,527.5C 527.759,513.251 521.093,499.584 513.5,486.5C 512.344,484.176 511.344,481.843 510.5,479.5C 505.246,466.771 499.579,454.105 493.5,441.5C 492.998,440.479 492.332,440.312 491.5,441C 489.618,443.043 487.951,445.209 486.5,447.5C 483.791,450.208 481.458,453.208 479.5,456.5C 474.265,461.979 469.265,467.646 464.5,473.5C 462.692,473.491 461.025,473.991 459.5,475C 458.002,477.482 456.502,479.982 455,482.5C 453.989,483.337 452.822,483.67 451.5,483.5C 450.167,487.167 448.833,490.833 447.5,494.5C 447.5,494.833 447.5,495.167 447.5,495.5C 442.404,502.019 437.071,508.352 431.5,514.5C 430.07,514.421 428.736,514.754 427.5,515.5C 426.563,518.548 424.73,520.881 422,522.5C 421.506,524.134 421.34,525.801 421.5,527.5C 417.483,531.855 413.816,536.522 410.5,541.5C 407.243,544.294 403.577,546.294 399.5,547.5C 388.813,547.832 378.146,547.499 367.5,546.5C 366.5,545.833 365.5,545.167 364.5,544.5C 362.042,540.204 361.042,535.537 361.5,530.5C 362.529,527.109 364.529,524.443 367.5,522.5C 368.117,522.611 368.617,522.944 369,523.5C 373.529,520.776 375.695,516.776 375.5,511.5C 375.833,511.5 376.167,511.5 376.5,511.5C 377.822,511.67 378.989,511.337 380,510.5C 382.919,506.375 385.419,502.042 387.5,497.5C 389.144,495.519 390.81,493.519 392.5,491.5C 396.733,489.282 400.733,486.615 404.5,483.5C 405.427,481.509 405.594,479.509 405,477.5C 408.034,476.199 410.2,474.033 411.5,471C 412.825,471.148 413.992,470.982 415,470.5C 415.497,468.19 415.663,465.857 415.5,463.5C 415.5,463.167 415.5,462.833 415.5,462.5C 416.496,462.586 417.329,462.252 418,461.5C 418.308,462.308 418.808,462.975 419.5,463.5C 421.905,461.358 423.238,458.691 423.5,455.5C 425.262,455.643 426.929,455.309 428.5,454.5C 429.425,451.095 430.425,447.761 431.5,444.5C 431.427,442.973 432.094,441.973 433.5,441.5C 437.375,440.124 440.542,437.791 443,434.5C 443.747,430.684 445.247,427.35 447.5,424.5C 447.5,424.167 447.5,423.833 447.5,423.5C 448.873,423.657 450.207,423.49 451.5,423C 453.54,420.815 454.874,418.315 455.5,415.5C 459.466,413.697 462.299,410.697 464,406.5C 464.333,406.833 464.667,407.167 465,407.5C 466.353,406.315 467.52,404.981 468.5,403.5C 470.186,399.065 472.02,394.732 474,390.5C 474.333,390.833 474.667,391.167 475,391.5C 478.295,389.703 481.128,387.37 483.5,384.5C 486.003,385.55 487.503,384.55 488,381.5C 490.312,383.464 492.812,383.797 495.5,382.5C 493.516,382.358 491.516,381.358 489.5,379.5C 492.342,375.972 494.342,371.972 495.5,367.5C 495.5,367.167 495.5,366.833 495.5,366.5C 498.781,367.031 501.281,365.031 503,360.5C 507.321,359.05 509.155,356.05 508.5,351.5C 508.738,349.596 509.738,348.262 511.5,347.5C 512.423,348.303 513.423,348.47 514.5,348C 516.642,344.025 519.642,340.858 523.5,338.5C 524.088,336.089 525.255,334.089 527,332.5C 527.494,330.866 527.66,329.199 527.5,327.5C 528.873,327.657 530.207,327.49 531.5,327C 535.171,321.738 539.004,316.571 543,311.5C 547.613,309.324 549.779,305.657 549.5,300.5C 552.89,296.442 555.89,292.109 558.5,287.5C 558.833,287.5 559.167,287.5 559.5,287.5C 559.833,287.5 560.167,287.5 560.5,287.5C 561.675,287.719 562.675,287.386 563.5,286.5C 565.982,282.551 569.149,279.217 573,276.5C 573.275,273.588 574.109,270.921 575.5,268.5C 577.441,268.131 579.275,267.464 581,266.5C 582.305,263.362 584.471,261.029 587.5,259.5C 589.041,256.807 590.374,254.141 591.5,251.5C 591.842,250.662 592.508,250.328 593.5,250.5 Z" />
            </g>
            <g>
                <path style="opacity:1" fill="#982243"
                    d="M 630.5,267.5 C 633.805,260.247 632.138,254.414 625.5,250C 614.659,249.175 603.992,249.341 593.5,250.5C 592.508,250.328 591.842,250.662 591.5,251.5C 588.9,252.919 586.4,254.585 584,256.5C 581.311,260.675 578.477,264.675 575.5,268.5C 569.364,273.966 564.364,280.299 560.5,287.5C 560.167,287.5 559.833,287.5 559.5,287.5C 559.215,285.712 559.548,284.045 560.5,282.5C 561.814,281.687 562.981,280.687 564,279.5C 566.735,275.419 569.069,271.085 571,266.5C 575.035,263.924 577.535,260.257 578.5,255.5C 577.5,255.5 576.5,255.5 575.5,255.5C 575.5,254.5 575.5,253.5 575.5,252.5C 579.906,254.648 583.573,253.814 586.5,250C 600.104,247.121 613.77,246.788 627.5,249C 633.058,253.528 634.892,259.361 633,266.5C 632.329,267.252 631.496,267.586 630.5,267.5 Z" />
            </g>
            <g>
                <path style="opacity:1" fill="#fae6ec"
                    d="M 593.5,250.5 C 603.992,249.341 614.659,249.175 625.5,250C 632.138,254.414 633.805,260.247 630.5,267.5C 629.167,268.833 627.833,270.167 626.5,271.5C 627.036,267.852 627.702,264.519 628.5,261.5C 627.929,259.259 626.596,257.592 624.5,256.5C 625.025,255.808 625.692,255.308 626.5,255C 624.561,254.092 623.561,252.592 623.5,250.5C 613.5,250.5 603.5,250.5 593.5,250.5 Z" />
            </g>
            <g>
                <path style="opacity:1" fill="#f9e3ed"
                    d="M 591.5,251.5 C 590.374,254.141 589.041,256.807 587.5,259.5C 584.471,261.029 582.305,263.362 581,266.5C 579.275,267.464 577.441,268.131 575.5,268.5C 578.477,264.675 581.311,260.675 584,256.5C 586.4,254.585 588.9,252.919 591.5,251.5 Z" />
            </g>
            <g>
                <path style="opacity:1" fill="#f4d6de"
                    d="M 225.5,255.5 C 226.833,255.5 228.167,255.5 229.5,255.5C 226.607,256.929 223.941,258.763 221.5,261C 216.683,262.881 212.017,264.048 207.5,264.5C 213.29,261.123 219.29,258.123 225.5,255.5 Z" />
            </g>
            <g>
                <path style="opacity:1" fill="#8f213e"
                    d="M 225.5,255.5 C 219.29,258.123 213.29,261.123 207.5,264.5C 204.489,265.669 201.822,267.336 199.5,269.5C 197.938,269.733 196.605,270.4 195.5,271.5C 195.281,270.325 195.614,269.325 196.5,268.5C 198.982,266.656 201.649,265.323 204.5,264.5C 204.238,261.079 205.572,260.079 208.5,261.5C 212.28,259.813 215.947,257.98 219.5,256C 221.473,255.505 223.473,255.338 225.5,255.5 Z" />
            </g>
            <g>
                <path style="opacity:1" fill="#cf8a9d"
                    d="M 655.5,250.5 C 654.081,251.451 652.415,251.784 650.5,251.5C 650.5,252.833 650.5,254.167 650.5,255.5C 650.817,259.702 650.483,263.702 649.5,267.5C 649.5,261.833 649.5,256.167 649.5,250.5C 651.5,250.5 653.5,250.5 655.5,250.5 Z" />
            </g>
            <g>
                <path style="opacity:1" fill="#f9eef0"
                    d="M 655.5,249.5 C 655.5,249.833 655.5,250.167 655.5,250.5C 653.5,250.5 651.5,250.5 649.5,250.5C 649.5,256.167 649.5,261.833 649.5,267.5C 648.833,267.5 648.167,267.5 647.5,267.5C 647.5,262.167 647.5,256.833 647.5,251.5C 646.048,250.698 644.382,250.198 642.5,250C 646.821,249.501 651.154,249.334 655.5,249.5 Z" />
            </g>
            <g>
                <path style="opacity:1" fill="#f1d4dd"
                    d="M 665.5,258.5 C 666.508,265.134 667.508,265.134 668.5,258.5C 670.302,255.426 671.302,252.092 671.5,248.5C 672.833,248.5 674.167,248.5 675.5,248.5C 676.11,254.815 676.443,261.149 676.5,267.5C 675.5,267.5 674.5,267.5 673.5,267.5C 673.515,251.92 671.848,251.92 668.5,267.5C 667.167,267.5 665.833,267.5 664.5,267.5C 664.483,265.435 664.15,263.435 663.5,261.5C 663.143,259.411 662.477,257.411 661.5,255.5C 660.506,259.452 659.84,263.452 659.5,267.5C 658.833,267.5 658.167,267.5 657.5,267.5C 657.295,261.122 657.628,254.789 658.5,248.5C 659.833,248.5 661.167,248.5 662.5,248.5C 662.885,252.044 663.885,255.377 665.5,258.5 Z" />
            </g>
            <g>
                <path style="opacity:1" fill="#973753"
                    d="M 663.5,261.5 C 662.883,261.389 662.383,261.056 662,260.5C 661.61,263.104 660.776,265.438 659.5,267.5C 659.84,263.452 660.506,259.452 661.5,255.5C 662.477,257.411 663.143,259.411 663.5,261.5 Z" />
            </g>
            <g>
                <path style="opacity:1" fill="#783d4d"
                    d="M 665.5,258.5 C 666.5,258.5 667.5,258.5 668.5,258.5C 667.508,265.134 666.508,265.134 665.5,258.5 Z" />
            </g>
            <g>
                <path style="opacity:1" fill="#f5d8e4"
                    d="M 457.5,255.5 C 459.684,260.042 461.684,264.709 463.5,269.5C 462.778,269.918 462.278,270.584 462,271.5C 460.701,268.853 459.368,266.186 458,263.5C 457.503,260.854 457.336,258.187 457.5,255.5 Z" />
            </g>
            <g>
                <path style="opacity:1" fill="#7a3849"
                    d="M 647.5,267.5 C 648.167,267.5 648.833,267.5 649.5,267.5C 648.833,272.833 648.167,272.833 647.5,267.5 Z" />
            </g>
            <g>
                <path style="opacity:1" fill="#8e2e48"
                    d="M 379.5,271.5 C 375.802,271.806 372.302,271.139 369,269.5C 366.671,270.821 365.338,272.821 365,275.5C 364.329,276.252 363.496,276.586 362.5,276.5C 364.109,273.407 365.109,270.073 365.5,266.5C 370.209,268.169 374.876,269.836 379.5,271.5 Z" />
            </g>
            <g>
                <path style="opacity:1" fill="#f6dbe2"
                    d="M 575.5,268.5 C 574.109,270.921 573.275,273.588 573,276.5C 569.149,279.217 565.982,282.551 563.5,286.5C 562.675,287.386 561.675,287.719 560.5,287.5C 564.364,280.299 569.364,273.966 575.5,268.5 Z" />
            </g>
            <g>
                <path style="opacity:1" fill="#fadce9"
                    d="M 199.5,269.5 C 198.71,270.794 197.71,271.961 196.5,273C 197.711,273.893 197.711,274.726 196.5,275.5C 194.587,276.373 192.753,277.373 191,278.5C 190.667,278.167 190.333,277.833 190,277.5C 187.237,282.626 183.07,285.96 177.5,287.5C 183.124,281.697 189.124,276.364 195.5,271.5C 196.605,270.4 197.938,269.733 199.5,269.5 Z" />
            </g>
            <g>
                <path style="opacity:1" fill="#8e2945"
                    d="M 195.5,271.5 C 189.124,276.364 183.124,281.697 177.5,287.5C 176.833,287.5 176.167,287.5 175.5,287.5C 178.602,283.558 181.935,279.725 185.5,276C 188.599,273.87 191.932,272.37 195.5,271.5 Z" />
            </g>
            <g>
                <path style="opacity:1" fill="#8f314b"
                    d="M 383.5,272.5 C 389.032,274.682 394.366,277.348 399.5,280.5C 399.5,280.833 399.5,281.167 399.5,281.5C 394.182,279.51 388.849,277.51 383.5,275.5C 383.5,274.5 383.5,273.5 383.5,272.5 Z" />
            </g>
            <g>
                <path style="opacity:1" fill="#992a47"
                    d="M 630.5,267.5 C 630.751,270.909 630.417,274.242 629.5,277.5C 624.372,278.957 620.372,281.957 617.5,286.5C 616.675,287.386 615.675,287.719 614.5,287.5C 618.115,281.884 622.115,276.55 626.5,271.5C 627.833,270.167 629.167,268.833 630.5,267.5 Z" />
            </g>
            <g>
                <path style="opacity:1" fill="#f7d6e3"
                    d="M 399.5,280.5 C 404.976,279.896 408.309,282.229 409.5,287.5C 406.167,285.833 402.833,284.167 399.5,282.5C 399.5,282.167 399.5,281.833 399.5,281.5C 399.5,281.167 399.5,280.833 399.5,280.5 Z" />
            </g>
            <g>
                <path style="opacity:1" fill="#f6d7e3"
                    d="M 466.5,275.5 C 469.793,280.699 472.127,286.365 473.5,292.5C 472.25,292.423 471.417,291.756 471,290.5C 469.44,285.417 467.94,280.417 466.5,275.5 Z" />
            </g>
            <g>
                <path style="opacity:1" fill="#972243"
                    d="M 175.5,287.5 C 175.5,288.167 175.5,288.833 175.5,289.5C 171.692,293.122 168.359,297.122 165.5,301.5C 165.027,302.906 164.027,303.573 162.5,303.5C 162.343,302.127 162.51,300.793 163,299.5C 165.756,296.326 167.756,292.66 169,288.5C 171.041,287.577 173.208,287.244 175.5,287.5 Z" />
            </g>
            <g>
                <path style="opacity:1" fill="#922d4a"
                    d="M 558.5,287.5 C 555.89,292.109 552.89,296.442 549.5,300.5C 548.272,301.306 547.272,302.306 546.5,303.5C 545.787,298.924 547.62,295.924 552,294.5C 553.903,292.559 554.736,290.226 554.5,287.5C 555.833,287.5 557.167,287.5 558.5,287.5 Z" />
            </g>
            <g>
                <path style="opacity:1" fill="#fadee9"
                    d="M 335.5,294.5 C 315.672,294.73 295.672,294.896 275.5,295C 266.744,295.775 258.077,297.108 249.5,299C 245.939,300.232 242.606,301.732 239.5,303.5C 238.833,303.5 238.167,303.5 237.5,303.5C 238.252,301.9 239.252,300.4 240.5,299C 248.156,297.435 255.823,295.935 263.5,294.5C 287.5,293.357 311.5,293.357 335.5,294.5 Z" />
            </g>
            <g>
                <path style="opacity:1" fill="#f5d8e3"
                    d="M 175.5,289.5 C 175.657,290.873 175.49,292.207 175,293.5C 172.497,295.48 170.664,297.813 169.5,300.5C 168.041,300.433 166.708,300.766 165.5,301.5C 168.359,297.122 171.692,293.122 175.5,289.5 Z" />
            </g>
            <g>
                <path style="opacity:1" fill="#972b48"
                    d="M 351.5,289.5 C 351.5,290.5 351.5,291.5 351.5,292.5C 348.401,292.092 346.067,293.259 344.5,296C 320.166,296.819 295.833,297.653 271.5,298.5C 260.575,298.987 249.908,300.654 239.5,303.5C 242.606,301.732 245.939,300.232 249.5,299C 258.077,297.108 266.744,295.775 275.5,295C 295.672,294.896 315.672,294.73 335.5,294.5C 337.199,294.66 338.866,294.494 340.5,294C 344.188,292.487 347.855,290.987 351.5,289.5 Z" />
            </g>
            <g>
                <path style="opacity:1" fill="#982645"
                    d="M 399.5,282.5 C 402.833,284.167 406.167,285.833 409.5,287.5C 418.341,295.334 425.674,304.334 431.5,314.5C 430.883,314.611 430.383,314.944 430,315.5C 428.457,313.622 426.624,312.122 424.5,311C 423.522,307.586 422.022,304.419 420,301.5C 418.89,299.963 417.39,299.297 415.5,299.5C 415.5,298.167 415.5,296.833 415.5,295.5C 410.024,295.346 406.691,292.679 405.5,287.5C 403.567,287.271 401.9,286.438 400.5,285C 399.748,284.329 399.414,283.496 399.5,282.5 Z" />
            </g>
            <g>
                <path style="opacity:1" fill="#91334a"
                    d="M 607.5,296.5 C 605.157,299.663 603.657,303.33 603,307.5C 599.87,309.628 597.037,312.128 594.5,315C 593.552,315.483 592.552,315.649 591.5,315.5C 596.606,308.941 601.939,302.608 607.5,296.5 Z" />
            </g>
            <g>
                <path style="opacity:1" fill="#9b4459"
                    d="M 237.5,303.5 C 236.358,305.433 234.692,306.933 232.5,308C 231.207,308.49 229.873,308.657 228.5,308.5C 231.008,306.076 234.008,304.41 237.5,303.5 Z" />
            </g>
            <g>
                <path style="opacity:1" fill="#fbe4ec"
                    d="M 607.5,295.5 C 607.5,295.833 607.5,296.167 607.5,296.5C 601.939,302.608 596.606,308.941 591.5,315.5C 591.5,315.833 591.5,316.167 591.5,316.5C 588.806,318.527 586.473,320.861 584.5,323.5C 584.104,320.518 584.771,317.851 586.5,315.5C 588.802,314.198 590.802,312.532 592.5,310.5C 596.669,306.073 600.335,301.239 603.5,296C 604.793,295.51 606.127,295.343 607.5,295.5 Z" />
            </g>
            <g>
                <path style="opacity:1" fill="#f9e1e9"
                    d="M 549.5,300.5 C 549.779,305.657 547.613,309.324 543,311.5C 539.004,316.571 535.171,321.738 531.5,327C 530.207,327.49 528.873,327.657 527.5,327.5C 532.648,321.237 537.814,314.904 543,308.5C 544.094,306.922 544.928,305.255 545.5,303.5C 545.833,303.5 546.167,303.5 546.5,303.5C 547.272,302.306 548.272,301.306 549.5,300.5 Z" />
            </g>
            <g>
                <path style="opacity:1" fill="#9b324e"
                    d="M 162.5,303.5 C 161.758,305.98 160.758,308.313 159.5,310.5C 156.787,313.093 154.787,316.093 153.5,319.5C 153.34,317.801 153.506,316.134 154,314.5C 155.952,310.753 157.786,307.087 159.5,303.5C 160.5,303.5 161.5,303.5 162.5,303.5 Z" />
            </g>
            <g>
                <path style="opacity:1" fill="#942844"
                    d="M 545.5,303.5 C 544.928,305.255 544.094,306.922 543,308.5C 537.814,314.904 532.648,321.237 527.5,327.5C 525.146,330.521 522.479,333.188 519.5,335.5C 519.617,330.056 522.284,326.723 527.5,325.5C 528.774,321.591 530.607,317.924 533,314.5C 536.771,312.795 539.271,309.962 540.5,306C 542.249,305.215 543.916,304.382 545.5,303.5 Z" />
            </g>
            <g>
                <path style="opacity:1" fill="#99354d"
                    d="M 431.5,314.5 C 433.645,317.433 435.812,320.433 438,323.5C 438.49,324.793 438.657,326.127 438.5,327.5C 434.132,324.463 431.799,320.13 431.5,314.5 Z" />
            </g>
            <g>
                <path style="opacity:1" fill="#f3cfdd"
                    d="M 159.5,310.5 C 159.657,311.873 159.49,313.207 159,314.5C 156.762,317.972 154.762,321.638 153,325.5C 151.532,326.989 150.032,328.323 148.5,329.5C 149.833,326.167 151.167,322.833 152.5,319.5C 152.833,319.5 153.167,319.5 153.5,319.5C 154.787,316.093 156.787,313.093 159.5,310.5 Z" />
            </g>
            <g>
                <path style="opacity:1" fill="#992e49"
                    d="M 228.5,308.5 C 228.461,309.583 228.127,310.583 227.5,311.5C 223.193,313.148 219.693,315.814 217,319.5C 215.904,324.765 212.737,327.765 207.5,328.5C 207.833,331.5 206.5,332.833 203.5,332.5C 200.972,336.895 198.972,341.562 197.5,346.5C 196.5,346.5 195.5,346.5 194.5,346.5C 194.771,348.38 194.104,349.713 192.5,350.5C 196.038,343.094 199.871,335.761 204,328.5C 211.133,320.569 219.299,313.903 228.5,308.5 Z" />
            </g>
            <g>
                <path style="opacity:1" fill="#922843"
                    d="M 484.5,311.5 C 487.823,317.774 491.157,324.107 494.5,330.5C 495.452,332.045 495.785,333.712 495.5,335.5C 490.764,328.026 487.097,320.026 484.5,311.5 Z" />
            </g>
            <g>
                <path style="opacity:1" fill="#992d4b"
                    d="M 591.5,316.5 C 590.507,319.073 589.674,321.74 589,324.5C 585.213,326.451 582.713,329.451 581.5,333.5C 581.709,334.086 582.043,334.586 582.5,335C 580.19,335.497 577.857,335.663 575.5,335.5C 578.5,331.5 581.5,327.5 584.5,323.5C 586.473,320.861 588.806,318.527 591.5,316.5 Z" />
            </g>
            <g>
                <path style="opacity:1" fill="#8a2642"
                    d="M 152.5,319.5 C 151.167,322.833 149.833,326.167 148.5,329.5C 147.217,333.008 145.551,336.342 143.5,339.5C 144.412,334.337 145.912,329.337 148,324.5C 149.417,322.602 150.917,320.936 152.5,319.5 Z" />
            </g>
            <g>
                <path style="opacity:1" fill="#f8e1ea"
                    d="M 527.5,327.5 C 527.66,329.199 527.494,330.866 527,332.5C 525.255,334.089 524.088,336.089 523.5,338.5C 519.642,340.858 516.642,344.025 514.5,348C 513.423,348.47 512.423,348.303 511.5,347.5C 514.559,343.772 517.226,339.772 519.5,335.5C 522.479,333.188 525.146,330.521 527.5,327.5 Z" />
            </g>
            <g>
                <path style="opacity:1" fill="#9a2b48"
                    d="M 438.5,327.5 C 442.509,332.177 445.509,337.511 447.5,343.5C 450.163,349.494 452.83,355.494 455.5,361.5C 453.896,360.713 453.229,359.38 453.5,357.5C 451.089,357.863 449.589,356.863 449,354.5C 445.201,345.601 441.701,336.601 438.5,327.5 Z" />
            </g>
            <g>
                <path style="opacity:1" fill="#932645"
                    d="M 519.5,335.5 C 517.226,339.772 514.559,343.772 511.5,347.5C 509.738,348.262 508.738,349.596 508.5,351.5C 503.849,355.819 499.516,360.486 495.5,365.5C 495.238,364.022 495.571,362.689 496.5,361.5C 498.488,358.579 500.822,355.912 503.5,353.5C 504.189,351.556 504.689,349.556 505,347.5C 508.984,344.992 512.651,341.992 516,338.5C 516.483,337.552 516.649,336.552 516.5,335.5C 517.5,335.5 518.5,335.5 519.5,335.5 Z" />
            </g>
            <g>
                <path style="opacity:1" fill="#f9dde8"
                    d="M 143.5,343.5 C 142.784,349.913 141.617,356.246 140,362.5C 139.667,362.167 139.333,361.833 139,361.5C 138.722,362.416 138.222,363.082 137.5,363.5C 138.28,356.362 140.28,349.695 143.5,343.5 Z" />
            </g>
            <g>
                <path style="opacity:1" fill="#f7d9e4"
                    d="M 508.5,351.5 C 509.155,356.05 507.321,359.05 503,360.5C 501.281,365.031 498.781,367.031 495.5,366.5C 495.5,366.167 495.5,365.833 495.5,365.5C 499.516,360.486 503.849,355.819 508.5,351.5 Z" />
            </g>
            <g>
                <path style="opacity:1" fill="#f9e7ee"
                    d="M 482.5,310.5 C 483.167,310.833 483.833,311.167 484.5,311.5C 487.097,320.026 490.764,328.026 495.5,335.5C 496.376,338.799 496.543,342.132 496,345.5C 490.716,357.87 485.55,370.203 480.5,382.5C 481.274,383.711 482.107,383.711 483,382.5C 486.086,378.655 488.919,374.655 491.5,370.5C 492.637,369.211 493.97,368.211 495.5,367.5C 494.342,371.972 492.342,375.972 489.5,379.5C 491.516,381.358 493.516,382.358 495.5,382.5C 492.812,383.797 490.312,383.464 488,381.5C 487.503,384.55 486.003,385.55 483.5,384.5C 481.128,387.37 478.295,389.703 475,391.5C 474.667,391.167 474.333,390.833 474,390.5C 472.02,394.732 470.186,399.065 468.5,403.5C 467.52,404.981 466.353,406.315 465,407.5C 464.667,407.167 464.333,406.833 464,406.5C 462.299,410.697 459.466,413.697 455.5,415.5C 454.874,418.315 453.54,420.815 451.5,423C 450.207,423.49 448.873,423.657 447.5,423.5C 447.5,423.167 447.5,422.833 447.5,422.5C 455.542,413.957 463.042,404.957 470,395.5C 469.217,389.601 467.05,384.268 463.5,379.5C 463.737,378.209 463.404,377.209 462.5,376.5C 460.963,371.094 458.629,366.094 455.5,361.5C 452.83,355.494 450.163,349.494 447.5,343.5C 449.5,343.833 451.5,344.167 453.5,344.5C 453.536,348.979 454.369,353.312 456,357.5C 458.978,365.139 462.812,372.306 467.5,379C 468.127,381.135 468.627,383.302 469,385.5C 470.006,388.89 472.006,389.89 475,388.5C 477.267,385.353 479.267,382.02 481,378.5C 481.735,375.315 481.235,372.315 479.5,369.5C 479.833,368.833 480.167,368.167 480.5,367.5C 481.5,368.167 482.5,368.833 483.5,369.5C 484.59,368.609 484.59,367.609 483.5,366.5C 488.751,359.415 491.417,351.415 491.5,342.5C 490.814,340.653 489.814,338.986 488.5,337.5C 490.449,334.384 490.616,331.051 489,327.5C 486.027,322.113 483.86,316.446 482.5,310.5 Z" />
            </g>
            <g>
                <path style="opacity:1" fill="#9a3e55"
                    d="M 455.5,361.5 C 458.629,366.094 460.963,371.094 462.5,376.5C 461.671,377.332 460.838,376.999 460,375.5C 457.987,370.963 456.487,366.296 455.5,361.5 Z" />
            </g>
            <g>
                <path style="opacity:1" fill="#fce3ed"
                    d="M 191.5,351.5 C 191.5,352.5 191.5,353.5 191.5,354.5C 188.25,362.474 185.75,370.808 184,379.5C 182.475,391.761 180.309,403.761 177.5,415.5C 178.828,393.879 182.828,372.879 189.5,352.5C 189.957,351.702 190.624,351.369 191.5,351.5 Z" />
            </g>
            <g>
                <path style="opacity:1" fill="#93314c"
                    d="M 495.5,335.5 C 497.167,335.5 498.833,335.5 500.5,335.5C 500.766,339.605 500.266,343.605 499,347.5C 494.573,354.018 490.906,361.018 488,368.5C 487.333,369.833 487.333,371.167 488,372.5C 488.71,371.027 489.876,370.36 491.5,370.5C 488.919,374.655 486.086,378.655 483,382.5C 482.107,383.711 481.274,383.711 480.5,382.5C 485.55,370.203 490.716,357.87 496,345.5C 496.543,342.132 496.376,338.799 495.5,335.5 Z" />
            </g>
            <g>
                <path style="opacity:1" fill="#962846"
                    d="M 575.5,335.5 C 575.799,337.604 575.466,339.604 574.5,341.5C 572.215,343.876 570.215,346.542 568.5,349.5C 567.833,351.5 567.167,353.5 566.5,355.5C 562.233,357.55 558.399,360.216 555,363.5C 552.39,366.718 550.89,370.385 550.5,374.5C 548.323,374.586 546.323,375.253 544.5,376.5C 540.464,382.273 536.798,388.273 533.5,394.5C 531.827,396.086 529.827,396.753 527.5,396.5C 530.956,408.555 535.789,420.222 542,431.5C 543.079,434.063 543.579,436.729 543.5,439.5C 541.124,433.746 538.458,428.08 535.5,422.5C 532.171,414.507 528.504,406.673 524.5,399C 526.959,395.91 529.293,392.743 531.5,389.5C 535.394,385.392 539.061,381.059 542.5,376.5C 553.762,362.938 564.762,349.271 575.5,335.5 Z" />
            </g>
            <g>
                <path style="opacity:1" fill="#fadbe7"
                    d="M 542.5,376.5 C 539.061,381.059 535.394,385.392 531.5,389.5C 531.586,388.504 531.252,387.671 530.5,387C 531.448,386.517 532.448,386.351 533.5,386.5C 534.544,383.835 535.711,381.168 537,378.5C 538.361,375.882 540.194,375.215 542.5,376.5 Z" />
            </g>
            <g>
                <path style="opacity:1" fill="#8a2846"
                    d="M 134.5,374.5 C 132.079,386.276 129.745,397.943 127.5,409.5C 128.027,398.169 129.694,387.002 132.5,376C 132.836,374.97 133.503,374.47 134.5,374.5 Z" />
            </g>
            <g>
                <path style="opacity:1" fill="#fae6ee"
                    d="M 531.5,389.5 C 529.293,392.743 526.959,395.91 524.5,399C 528.504,406.673 532.171,414.507 535.5,422.5C 534.883,422.611 534.383,422.944 534,423.5C 533.027,421.608 532.36,419.608 532,417.5C 531.667,418.167 531.333,418.833 531,419.5C 530.08,416.899 529.413,414.232 529,411.5C 525.717,408.663 522.55,404.997 519.5,400.5C 520.068,397.548 521.234,394.881 523,392.5C 524.503,392.835 525.836,392.835 527,392.5C 527.483,391.552 527.649,390.552 527.5,389.5C 528.833,389.5 530.167,389.5 531.5,389.5 Z" />
            </g>
            <g>
                <path style="opacity:1" fill="#902944"
                    d="M 463.5,379.5 C 467.05,384.268 469.217,389.601 470,395.5C 463.042,404.957 455.542,413.957 447.5,422.5C 449.957,418.973 451.624,414.973 452.5,410.5C 456.435,408.069 459.935,405.069 463,401.5C 463.495,399.527 463.662,397.527 463.5,395.5C 464.5,395.5 465.5,395.5 466.5,395.5C 466.11,390.053 465.11,384.72 463.5,379.5 Z" />
            </g>
            <g>
                <path style="opacity:1" fill="#fce5ec"
                    d="M 349.5,391.5 C 351.452,392.785 353.118,394.451 354.5,396.5C 355.54,406.907 354.873,417.241 352.5,427.5C 352.5,428.167 352.167,428.5 351.5,428.5C 352.129,421.003 352.796,413.503 353.5,406C 353.176,402.708 352.509,399.541 351.5,396.5C 349.692,396.509 348.025,396.009 346.5,395C 348.426,394.578 349.426,393.411 349.5,391.5 Z" />
            </g>
            <g>
                <path style="opacity:1" fill="#973f56"
                    d="M 354.5,396.5 C 357.09,400.693 358.09,405.36 357.5,410.5C 357.607,412.379 357.107,412.712 356,411.5C 355.667,414.833 355.333,418.167 355,421.5C 354.76,423.852 353.927,425.852 352.5,427.5C 354.873,417.241 355.54,406.907 354.5,396.5 Z" />
            </g>
            <g>
                <path style="opacity:1" fill="#f7dde7"
                    d="M 137.5,363.5 C 137.287,370.174 136.954,376.841 136.5,383.5C 135.5,383.5 134.5,383.5 133.5,383.5C 131.935,394.063 130.935,404.73 130.5,415.5C 129.5,415.5 128.5,415.5 127.5,415.5C 127.5,413.5 127.5,411.5 127.5,409.5C 129.745,397.943 132.079,386.276 134.5,374.5C 135.055,370.603 136.055,366.937 137.5,363.5 Z" />
            </g>
            <g>
                <path style="opacity:1" fill="#9a2a48"
                    d="M 357.5,410.5 C 358.09,405.36 357.09,400.693 354.5,396.5C 353.118,394.451 351.452,392.785 349.5,391.5C 348.737,390.732 347.737,390.232 346.5,390C 316.833,389.333 287.167,389.333 257.5,390C 256.584,390.278 255.918,390.778 255.5,391.5C 255.5,391.833 255.5,392.167 255.5,392.5C 254.883,392.611 254.383,392.944 254,393.5C 253.365,398.407 253.865,403.074 255.5,407.5C 259.865,419.199 267.865,427.199 279.5,431.5C 274.59,430.181 269.59,429.181 264.5,428.5C 264.649,427.448 264.483,426.448 264,425.5C 262.255,424.044 260.422,422.711 258.5,421.5C 257.049,416.117 254.882,411.117 252,406.5C 251.333,402.167 251.333,397.833 252,393.5C 252.785,391.714 253.951,390.214 255.5,389C 271.269,387.856 287.102,387.356 303,387.5C 319.19,387.53 335.357,387.863 351.5,388.5C 351.215,386.712 351.548,385.045 352.5,383.5C 352.983,388.619 354.65,393.285 357.5,397.5C 358.739,401.985 358.739,406.318 357.5,410.5 Z" />
            </g>
            <g>
                <path style="opacity:1" fill="#f5b8ca"
                    d="M 255.5,392.5 C 255.5,397.5 255.5,402.5 255.5,407.5C 253.865,403.074 253.365,398.407 254,393.5C 254.383,392.944 254.883,392.611 255.5,392.5 Z" />
            </g>
            <g>
                <path style="opacity:1" fill="#ebfff7"
                    d="M 271.5,397.5 C 292.844,397.167 314.177,397.5 335.5,398.5C 324.833,398.833 314.167,399.167 303.5,399.5C 292.478,399.499 281.812,398.832 271.5,397.5 Z" />
            </g>
            <g>
                <path style="opacity:1" fill="#fce2ee"
                    d="M 349.5,391.5 C 318.171,390.183 286.838,390.183 255.5,391.5C 255.918,390.778 256.584,390.278 257.5,390C 287.167,389.333 316.833,389.333 346.5,390C 347.737,390.232 348.737,390.732 349.5,391.5 Z" />
            </g>
            <g>
                <path style="opacity:1" fill="#fad7e5"
                    d="M 351.5,431.5 C 351.5,432.167 351.5,432.833 351.5,433.5C 349.137,443.316 347.137,453.316 345.5,463.5C 345.5,464.167 345.5,464.833 345.5,465.5C 344.833,467.5 344.167,469.5 343.5,471.5C 345.004,458.972 347.004,446.472 349.5,434C 349.684,432.624 350.351,431.791 351.5,431.5 Z" />
            </g>
            <g>
                <path style="opacity:1" fill="#9a2143"
                    d="M 191.5,354.5 C 191,364.01 189,373.177 185.5,382C 186.517,384.787 186.684,387.62 186,390.5C 183.986,400.253 181.653,409.919 179,419.5C 178.416,439.722 179.582,459.722 182.5,479.5C 179.047,474.895 176.88,469.562 176,463.5C 175.168,447.451 175.668,431.451 177.5,415.5C 180.309,403.761 182.475,391.761 184,379.5C 185.75,370.808 188.25,362.474 191.5,354.5 Z" />
            </g>
            <g>
                <path style="opacity:1" fill="#f7d8e5"
                    d="M 447.5,424.5 C 445.247,427.35 443.747,430.684 443,434.5C 440.542,437.791 437.375,440.124 433.5,441.5C 437.452,435.272 442.119,429.606 447.5,424.5 Z" />
            </g>
            <g>
                <path style="opacity:1" fill="#932644"
                    d="M 447.5,422.5 C 447.5,422.833 447.5,423.167 447.5,423.5C 447.5,423.833 447.5,424.167 447.5,424.5C 442.119,429.606 437.452,435.272 433.5,441.5C 432.094,441.973 431.427,442.973 431.5,444.5C 430.504,444.414 429.671,444.748 429,445.5C 425.011,451.317 420.511,456.651 415.5,461.5C 415.238,460.022 415.571,458.689 416.5,457.5C 418.699,455.617 420.199,453.284 421,450.5C 423.737,449.013 425.403,446.679 426,443.5C 428.638,441.502 431.305,439.502 434,437.5C 434.44,435.924 435.273,434.59 436.5,433.5C 436.291,432.914 435.957,432.414 435.5,432C 436.793,431.51 438.127,431.343 439.5,431.5C 438.971,425.694 441.637,422.694 447.5,422.5 Z" />
            </g>
            <g>
                <path style="opacity:1" fill="#972c48"
                    d="M 510.5,479.5 C 506.555,474.254 503.055,468.588 500,462.5C 499.926,457.814 498.093,454.148 494.5,451.5C 493.949,448.944 492.949,446.611 491.5,444.5C 490.305,446.297 488.638,447.297 486.5,447.5C 487.951,445.209 489.618,443.043 491.5,441C 492.332,440.312 492.998,440.479 493.5,441.5C 499.579,454.105 505.246,466.771 510.5,479.5 Z" />
            </g>
            <g>
                <path style="opacity:1" fill="#852a43"
                    d="M 287.5,432.5 C 291.88,433.265 295.047,435.599 297,439.5C 297.841,445.091 297.341,450.424 295.5,455.5C 296.59,449.764 296.424,444.097 295,438.5C 292.136,436.835 289.636,434.835 287.5,432.5 Z" />
            </g>
            <g>
                <path style="opacity:1" fill="#f7e0e7"
                    d="M 431.5,444.5 C 430.425,447.761 429.425,451.095 428.5,454.5C 426.929,455.309 425.262,455.643 423.5,455.5C 423.238,458.691 421.905,461.358 419.5,463.5C 418.808,462.975 418.308,462.308 418,461.5C 417.329,462.252 416.496,462.586 415.5,462.5C 415.5,462.167 415.5,461.833 415.5,461.5C 420.511,456.651 425.011,451.317 429,445.5C 429.671,444.748 430.504,444.414 431.5,444.5 Z" />
            </g>
            <g>
                <path style="opacity:1" fill="#943750"
                    d="M 351.5,433.5 C 351.247,443.995 349.247,453.995 345.5,463.5C 347.137,453.316 349.137,443.316 351.5,433.5 Z" />
            </g>
            <g>
                <path style="opacity:1" fill="#922947"
                    d="M 543.5,439.5 C 544.496,439.414 545.329,439.748 546,440.5C 548.744,446.321 551.744,451.988 555,457.5C 555.521,460.874 556.854,463.874 559,466.5C 559.495,468.473 559.662,470.473 559.5,472.5C 553.933,461.697 548.6,450.697 543.5,439.5 Z" />
            </g>
            <g>
                <path style="opacity:1" fill="#f9dae4"
                    d="M 127.5,417.5 C 127.68,430.213 127.013,442.88 125.5,455.5C 125.605,461.235 126.272,466.902 127.5,472.5C 126.777,474.782 126.443,477.116 126.5,479.5C 127.5,479.5 128.5,479.5 129.5,479.5C 129.335,482.518 129.502,485.518 130,488.5C 132.43,491.259 133.264,494.259 132.5,497.5C 130.503,494.84 129.003,491.84 128,488.5C 123.747,473.79 122.414,458.79 124,443.5C 124.778,434.636 125.944,425.969 127.5,417.5 Z" />
            </g>
            <g>
                <path style="opacity:1" fill="#f8e3ea"
                    d="M 415.5,463.5 C 415.663,465.857 415.497,468.19 415,470.5C 413.992,470.982 412.825,471.148 411.5,471C 410.2,474.033 408.034,476.199 405,477.5C 405.594,479.509 405.427,481.509 404.5,483.5C 400.733,486.615 396.733,489.282 392.5,491.5C 395.476,487.518 398.476,483.518 401.5,479.5C 405.794,473.871 410.461,468.537 415.5,463.5 Z" />
            </g>
            <g>
                <path style="opacity:1" fill="#922c47"
                    d="M 479.5,456.5 C 477.527,459.467 476.361,462.8 476,466.5C 472.213,468.451 469.713,471.451 468.5,475.5C 465.793,476.904 463.126,478.238 460.5,479.5C 462.226,477.772 463.559,475.772 464.5,473.5C 469.265,467.646 474.265,461.979 479.5,456.5 Z" />
            </g>
            <g>
                <path style="opacity:1" fill="#f9e0e9"
                    d="M 343.5,471.5 C 342.067,482.409 340.067,493.076 337.5,503.5C 337.971,497.244 337.971,491.077 337.5,485C 339.512,481.516 340.845,477.682 341.5,473.5C 341.747,472.287 342.414,471.62 343.5,471.5 Z" />
            </g>
            <g>
                <path style="opacity:1" fill="#f9e5ed"
                    d="M 464.5,473.5 C 463.559,475.772 462.226,477.772 460.5,479.5C 456.411,484.711 452.078,489.711 447.5,494.5C 448.833,490.833 450.167,487.167 451.5,483.5C 452.822,483.67 453.989,483.337 455,482.5C 456.502,479.982 458.002,477.482 459.5,475C 461.025,473.991 462.692,473.491 464.5,473.5 Z" />
            </g>
            <g>
                <path style="opacity:1" fill="#95324e"
                    d="M 460.5,479.5 C 460.142,483.367 458.309,486.367 455,488.5C 454.645,493.255 452.145,495.588 447.5,495.5C 447.5,495.167 447.5,494.833 447.5,494.5C 452.078,489.711 456.411,484.711 460.5,479.5 Z" />
            </g>
            <g>
                <path style="opacity:1" fill="#fadae6"
                    d="M 561.5,479.5 C 564.659,484.484 567.326,489.818 569.5,495.5C 568.504,495.586 567.671,495.252 567,494.5C 565.652,491.313 563.986,488.313 562,485.5C 561.505,483.527 561.338,481.527 561.5,479.5 Z" />
            </g>
            <g>
                <path style="opacity:1" fill="#912f4a"
                    d="M 345.5,465.5 C 344.205,480.027 342.038,494.36 339,508.5C 338.764,510.119 337.931,511.119 336.5,511.5C 336.993,509.194 337.326,506.861 337.5,504.5C 337.5,504.167 337.5,503.833 337.5,503.5C 340.067,493.076 342.067,482.409 343.5,471.5C 344.167,469.5 344.833,467.5 345.5,465.5 Z" />
            </g>
            <g>
                <path style="opacity:1" fill="#8e2842"
                    d="M 182.5,479.5 C 186.459,484.957 191.293,489.624 197,493.5C 197.464,494.094 197.631,494.761 197.5,495.5C 195.255,494.904 193.255,493.904 191.5,492.5C 187.304,488.975 184.304,484.642 182.5,479.5 Z" />
            </g>
            <g>
                <path style="opacity:1" fill="#fbd8e6"
                    d="M 191.5,492.5 C 193.255,493.904 195.255,494.904 197.5,495.5C 200.658,497.551 203.992,499.217 207.5,500.5C 202.904,501.067 199.07,499.734 196,496.5C 195.667,496.833 195.333,497.167 195,497.5C 194.097,496.299 192.931,495.465 191.5,495C 192.598,494.23 192.598,493.397 191.5,492.5 Z" />
            </g>
            <g>
                <path style="opacity:1" fill="#973750"
                    d="M 197.5,495.5 C 207.084,496.754 216.417,498.92 225.5,502C 246.164,502.5 266.831,502.667 287.5,502.5C 287.082,503.222 286.416,503.722 285.5,504C 267.5,504.667 249.5,504.667 231.5,504C 223.345,503.793 215.345,502.626 207.5,500.5C 203.992,499.217 200.658,497.551 197.5,495.5 Z" />
            </g>
            <g>
                <path style="opacity:1" fill="#992c4a"
                    d="M 513.5,486.5 C 521.093,499.584 527.759,513.251 533.5,527.5C 532.5,527.5 531.5,527.5 530.5,527.5C 530.657,526.127 530.49,524.793 530,523.5C 528.487,520.478 526.487,517.811 524,515.5C 523.623,508.907 520.79,503.74 515.5,500C 516.059,499.275 516.392,498.442 516.5,497.5C 514.407,494.129 513.407,490.462 513.5,486.5 Z" />
            </g>
            <g>
                <path style="opacity:1" fill="#fde4ef"
                    d="M 294.5,467.5 C 293.833,478.839 293,490.173 292,501.5C 290.936,503.693 289.602,505.693 288,507.5C 264.042,505.87 239.875,504.703 215.5,504C 212.399,503.362 209.732,502.195 207.5,500.5C 215.345,502.626 223.345,503.793 231.5,504C 249.5,504.667 267.5,504.667 285.5,504C 286.416,503.722 287.082,503.222 287.5,502.5C 290.245,490.821 292.578,479.154 294.5,467.5 Z" />
            </g>
            <g>
                <path style="opacity:1" fill="#8f3248"
                    d="M 447.5,495.5 C 447.657,496.873 447.49,498.207 447,499.5C 444.923,501.076 443.423,503.076 442.5,505.5C 439.744,507.091 437.911,509.424 437,512.5C 435.549,514.464 433.716,515.797 431.5,516.5C 431.5,515.833 431.5,515.167 431.5,514.5C 437.071,508.352 442.404,502.019 447.5,495.5 Z" />
            </g>
            <g>
                <path style="opacity:1" fill="#f8cddc"
                    d="M 387.5,497.5 C 385.419,502.042 382.919,506.375 380,510.5C 378.989,511.337 377.822,511.67 376.5,511.5C 379.411,506.254 383.078,501.587 387.5,497.5 Z" />
            </g>
            <g>
                <path style="opacity:1" fill="#972444"
                    d="M 127.5,415.5 C 127.5,416.167 127.5,416.833 127.5,417.5C 125.944,425.969 124.778,434.636 124,443.5C 122.414,458.79 123.747,473.79 128,488.5C 129.003,491.84 130.503,494.84 132.5,497.5C 137.243,507.91 143.576,517.243 151.5,525.5C 151.833,526.167 152.167,526.833 152.5,527.5C 151.167,527.5 149.833,527.5 148.5,527.5C 148.714,525.856 148.38,524.356 147.5,523C 145.005,520.657 142.005,519.157 138.5,518.5C 137.5,516.5 136.5,514.5 135.5,512.5C 134.311,511.571 132.978,511.238 131.5,511.5C 132.776,508.664 133.442,505.664 133.5,502.5C 132.167,502.5 130.833,502.5 129.5,502.5C 129.5,500.167 129.5,497.833 129.5,495.5C 128.167,495.5 126.833,495.5 125.5,495.5C 125.592,491.941 124.759,488.608 123,485.5C 122.167,464.825 122.334,444.159 123.5,423.5C 124.25,420.342 125.583,417.675 127.5,415.5 Z" />
            </g>
            <g>
                <path style="opacity:1" fill="#f2d8e3"
                    d="M 375.5,511.5 C 375.695,516.776 373.529,520.776 369,523.5C 368.617,522.944 368.117,522.611 367.5,522.5C 369.925,518.648 372.591,514.981 375.5,511.5 Z" />
            </g>
            <g>
                <path style="opacity:1" fill="#a01840"
                    d="M 585.5,546.5 C 587.139,543.11 588.139,539.443 588.5,535.5C 588.547,533.962 587.88,532.962 586.5,532.5C 581.291,519.957 575.624,507.624 569.5,495.5C 567.326,489.818 564.659,484.484 561.5,479.5C 561.371,477.784 561.038,476.117 560.5,474.5C 560.993,472.51 562.16,472.51 564,474.5C 564.333,476.833 564.667,479.167 565,481.5C 566.545,482.821 567.711,482.488 568.5,480.5C 570.045,479.548 571.712,479.215 573.5,479.5C 573.192,477.076 573.526,474.743 574.5,472.5C 575.647,474.765 575.814,477.098 575,479.5C 570.205,484.682 570.372,489.682 575.5,494.5C 573.816,495.854 573.316,497.521 574,499.5C 575.017,501.376 575.851,503.376 576.5,505.5C 578.071,506.309 579.738,506.643 581.5,506.5C 581.834,510.648 584.167,512.315 588.5,511.5C 588.702,513.989 588.202,516.323 587,518.5C 585.844,517.007 585.01,517.174 584.5,519C 586.443,523.598 588.61,528.098 591,532.5C 591.296,535.433 590.796,538.266 589.5,541C 589.755,542.326 590.422,543.326 591.5,544C 589.593,545.122 587.593,545.955 585.5,546.5 Z" />
            </g>
            <g>
                <path style="opacity:1" fill="#f8dbe8"
                    d="M 431.5,514.5 C 431.5,515.167 431.5,515.833 431.5,516.5C 430.504,516.414 429.671,516.748 429,517.5C 427.021,521.3 424.521,524.634 421.5,527.5C 421.34,525.801 421.506,524.134 422,522.5C 424.73,520.881 426.563,518.548 427.5,515.5C 428.736,514.754 430.07,514.421 431.5,514.5 Z" />
            </g>
            <g>
                <path style="opacity:1" fill="#f4cad7"
                    d="M 151.5,525.5 C 153.812,526.32 156.146,527.153 158.5,528C 159.337,529.011 159.67,530.178 159.5,531.5C 157.167,530.167 154.833,528.833 152.5,527.5C 152.167,526.833 151.833,526.167 151.5,525.5 Z" />
            </g>
            <g>
                <path style="opacity:1" fill="#992847"
                    d="M 431.5,516.5 C 429.389,521.448 427.056,526.448 424.5,531.5C 419.395,534.371 414.728,537.704 410.5,541.5C 413.816,536.522 417.483,531.855 421.5,527.5C 424.521,524.634 427.021,521.3 429,517.5C 429.671,516.748 430.504,516.414 431.5,516.5 Z" />
            </g>
            <g>
                <path style="opacity:1" fill="#f1fefc"
                    d="M 333.5,512.5 C 331.042,518.888 329.875,525.554 330,532.5C 328.084,535.898 327.084,539.565 327,543.5C 324.817,545.376 322.317,546.709 319.5,547.5C 280.171,548.667 240.838,548.833 201.5,548C 200.584,547.722 199.918,547.222 199.5,546.5C 240.444,546.134 281.444,545.134 322.5,543.5C 322.217,539.448 321.217,535.615 319.5,532C 319.667,530.5 319.833,529 320,527.5C 320.822,530.117 321.322,532.784 321.5,535.5C 323.911,535.863 325.411,534.863 326,532.5C 326.666,525.507 327.166,518.507 327.5,511.5C 329.735,511.205 331.735,511.539 333.5,512.5 Z" />
            </g>
            <g>
                <path style="opacity:1" fill="#fcdfe9"
                    d="M 361.5,530.5 C 361.042,535.537 362.042,540.204 364.5,544.5C 365.5,545.167 366.5,545.833 367.5,546.5C 378.146,547.499 388.813,547.832 399.5,547.5C 388.341,548.659 377.008,548.826 365.5,548C 360.048,542.871 358.715,537.038 361.5,530.5 Z" />
            </g>
            <g>
                <path style="opacity:1" fill="#fddde9"
                    d="M 337.5,504.5 C 337.326,506.861 336.993,509.194 336.5,511.5C 334.468,522.287 332.135,532.954 329.5,543.5C 326.711,546.402 323.377,548.568 319.5,550C 282.167,550.667 244.833,550.667 207.5,550C 200.124,549.555 193.124,548.055 186.5,545.5C 190.869,545.467 195.202,545.8 199.5,546.5C 199.918,547.222 200.584,547.722 201.5,548C 240.838,548.833 280.171,548.667 319.5,547.5C 322.317,546.709 324.817,545.376 327,543.5C 327.084,539.565 328.084,535.898 330,532.5C 329.875,525.554 331.042,518.888 333.5,512.5C 334.833,509.833 336.167,507.167 337.5,504.5 Z" />
            </g>
            <g>
                <path style="opacity:1" fill="#982a48"
                    d="M 401.5,479.5 C 398.476,483.518 395.476,487.518 392.5,491.5C 390.81,493.519 389.144,495.519 387.5,497.5C 383.078,501.587 379.411,506.254 376.5,511.5C 376.167,511.5 375.833,511.5 375.5,511.5C 372.591,514.981 369.925,518.648 367.5,522.5C 364.529,524.443 362.529,527.109 361.5,530.5C 358.715,537.038 360.048,542.871 365.5,548C 377.008,548.826 388.341,548.659 399.5,547.5C 403.577,546.294 407.243,544.294 410.5,541.5C 408.654,545.511 405.654,548.345 401.5,550C 389.153,550.833 376.82,550.666 364.5,549.5C 357.998,544.16 356.164,537.494 359,529.5C 361.039,526.729 362.705,523.729 364,520.5C 365.011,519.663 366.178,519.33 367.5,519.5C 371.229,514.38 374.229,508.714 376.5,502.5C 379.638,501.129 381.304,498.796 381.5,495.5C 383.696,495.435 385.696,494.768 387.5,493.5C 390.462,490.364 393.295,487.03 396,483.5C 396.49,482.207 396.657,480.873 396.5,479.5C 398.167,479.5 399.833,479.5 401.5,479.5 Z" />
            </g>
            <g>
                <path style="opacity:1" fill="#942c48"
                    d="M 534.5,530.5 C 535.263,532.368 536.263,534.035 537.5,535.5C 538.326,538.485 539.659,541.151 541.5,543.5C 541.833,543.5 542.167,543.5 542.5,543.5C 543.347,545.844 545.014,547.344 547.5,548C 557.5,548.667 567.5,548.667 577.5,548C 578.416,547.722 579.082,547.222 579.5,546.5C 584.981,543.538 587.315,538.872 586.5,532.5C 587.88,532.962 588.547,533.962 588.5,535.5C 588.139,539.443 587.139,543.11 585.5,546.5C 583.416,548.83 580.749,549.997 577.5,550C 567.5,550.667 557.5,550.667 547.5,550C 544.679,549.426 542.346,548.092 540.5,546C 539.167,543.667 537.833,541.333 536.5,539C 535.552,538.517 534.552,538.351 533.5,538.5C 533.194,535.615 533.527,532.948 534.5,530.5 Z" />
            </g>
            <g>
                <path style="opacity:1" fill="#fcdbe7"
                    d="M 542.5,543.5 C 545.358,543.595 547.691,544.762 549.5,547C 559.527,547.729 569.527,547.563 579.5,546.5C 579.082,547.222 578.416,547.722 577.5,548C 567.5,548.667 557.5,548.667 547.5,548C 545.014,547.344 543.347,545.844 542.5,543.5 Z" />
            </g>
            <g>
                <path style="opacity:1" fill="#efc5d5"
                    d="M 537.5,535.5 C 541.095,536.85 542.428,539.517 541.5,543.5C 539.659,541.151 538.326,538.485 537.5,535.5 Z" />
            </g>
            <g>
                <path style="opacity:1" fill="#962244"
                    d="M 177.5,543.5 C 180.5,544.167 183.5,544.833 186.5,545.5C 193.124,548.055 200.124,549.555 207.5,550C 244.833,550.667 282.167,550.667 319.5,550C 323.377,548.568 326.711,546.402 329.5,543.5C 329.851,548.04 327.851,550.54 323.5,551C 282.833,551.667 242.167,551.667 201.5,551C 196.896,549.939 192.229,549.273 187.5,549C 183.944,547.392 180.611,545.559 177.5,543.5 Z" />
            </g>
            <g>
                <path style="opacity:1" fill="#9f163d"
                    d="M 191.5,553.5 C 234.118,553.596 276.785,553.596 319.5,553.5C 319.5,554.5 319.5,555.5 319.5,556.5C 276.833,556.5 234.167,556.5 191.5,556.5C 191.5,555.5 191.5,554.5 191.5,553.5 Z" />
            </g>
        </svg>
    </g>
</svg>